[Header]
FileType HTR
DataType HTRS
FileVersion 1
NumSegments 64
NumFrames 4
DataFrameRate 30
EulerRotationOrder ZYX
CalibrationUnits mm
RotationUnits Degrees
GlobalAxisofGravity Y
BoneLengthAxis Y
ScaleFactor 1.0
[SegmentNames&Hierarchy]
Hips	GLOBAL
Spine	Hips
Spine1	Spine
Spine2	Spine1
Neck	Spine2
Head	Neck
LeftEye	Head
RightEye	Head
LeftShoulder	Spine2
LeftArm	LeftShoulder
LeftForeArm	LeftArm
LeftHand	LeftForeArm
LeftHandThumb1	LeftHand
LeftHandThumb2	LeftHandThumb1
LeftHandThumb3	LeftHandThumb2
LeftHandThumb4	LeftHandThumb3
LeftHandIndex1	LeftHand
LeftHandIndex2	LeftHandIndex1
LeftHandIndex3	LeftHandIndex2
LeftHandIndex4	LeftHandIndex3
LeftHandMiddle1	LeftHand
LeftHandMiddle2	LeftHandMiddle1
LeftHandMiddle3	LeftHandMiddle2
LeftHandMiddle4	LeftHandMiddle3
LeftHandRing1	LeftHand
LeftHandRing2	LeftHandRing1
LeftHandRing3	LeftHandRing2
LeftHandRing4	LeftHandRing3
LeftHandPinky1	LeftHand
LeftHandPinky2	LeftHandPinky1
LeftHandPinky3	LeftHandPinky2
LeftHandPinky4	LeftHandPinky3
RightShoulder	Spine2
RightArm	RightShoulder
RightForeArm	RightArm
RightHand	RightForeArm
RightHandPinky1	RightHand
RightHandPinky2	RightHandPinky1
RightHandPinky3	RightHandPinky2
RightHandPinky4	RightHandPinky3
RightHandRing1	RightHand
RightHandRing2	RightHandRing1
RightHandRing3	RightHandRing2
RightHandRing4	RightHandRing3
RightHandMiddle1	RightHand
RightHandMiddle2	RightHandMiddle1
RightHandMiddle3	RightHandMiddle2
RightHandMiddle4	RightHandMiddle3
RightHandIndex1	RightHand
RightHandIndex2	RightHandIndex1
RightHandIndex3	RightHandIndex2
RightHandIndex4	RightHandIndex3
RightHandThumb1	RightHand
RightHandThumb2	RightHandThumb1
RightHandThumb3	RightHandThumb2
RightHandThumb4	RightHandThumb3
LeftUpLeg	Hips
LeftLeg	LeftUpLeg
LeftFoot	LeftLeg
LeftToeBase	LeftFoot
RightUpLeg	Hips
RightLeg	RightUpLeg
RightFoot	RightLeg
RightToeBase	RightFoot
[BasePosition]
Hips	0	0	0	0	0	0	1
Spine	0	0	0	0	0	0	1
Spine1	0	0	0	0	0	0	1
Spine2	0	0	0	0	0	0	1
Neck	0	0	0	0	0	0	1
Head	0	0	0	0	0	0	1
LeftEye	0	0	0	0	0	0	1
RightEye	0	0	0	0	0	0	1
LeftShoulder	0	0	0	0	0	0	1
LeftArm	0	0	0	0	0	0	1
LeftForeArm	0	0	0	0	0	0	1
LeftHand	0	0	0	0	0	0	1
LeftHandThumb1	0	0	0	0	0	0	1
LeftHandThumb2	0	0	0	0	0	0	1
LeftHandThumb3	0	0	0	0	0	0	1
LeftHandThumb4	0	0	0	0	0	0	1
LeftHandIndex1	0	0	0	0	0	0	1
LeftHandIndex2	0	0	0	0	0	0	1
LeftHandIndex3	0	0	0	0	0	0	1
LeftHandIndex4	0	0	0	0	0	0	1
LeftHandMiddle1	0	0	0	0	0	0	1
LeftHandMiddle2	0	0	0	0	0	0	1
LeftHandMiddle3	0	0	0	0	0	0	1
LeftHandMiddle4	0	0	0	0	0	0	1
LeftHandRing1	0	0	0	0	0	0	1
LeftHandRing2	0	0	0	0	0	0	1
LeftHandRing3	0	0	0	0	0	0	1
LeftHandRing4	0	0	0	0	0	0	1
LeftHandPinky1	0	0	0	0	0	0	1
LeftHandPinky2	0	0	0	0	0	0	1
LeftHandPinky3	0	0	0	0	0	0	1
LeftHandPinky4	0	0	0	0	0	0	1
RightShoulder	0	0	0	0	0	0	1
RightArm	0	0	0	0	0	0	1
RightForeArm	0	0	0	0	0	0	1
RightHand	0	0	0	0	0	0	1
RightHandPinky1	0	0	0	0	0	0	1
RightHandPinky2	0	0	0	0	0	0	1
RightHandPinky3	0	0	0	0	0	0	1
RightHandPinky4	0	0	0	0	0	0	1
RightHandRing1	0	0	0	0	0	0	1
RightHandRing2	0	0	0	0	0	0	1
RightHandRing3	0	0	0	0	0	0	1
RightHandRing4	0	0	0	0	0	0	1
RightHandMiddle1	0	0	0	0	0	0	1
RightHandMiddle2	0	0	0	0	0	0	1
RightHandMiddle3	0	0	0	0	0	0	1
RightHandMiddle4	0	0	0	0	0	0	1
RightHandIndex1	0	0	0	0	0	0	1
RightHandIndex2	0	0	0	0	0	0	1
RightHandIndex3	0	0	0	0	0	0	1
RightHandIndex4	0	0	0	0	0	0	1
RightHandThumb1	0	0	0	0	0	0	1
RightHandThumb2	0	0	0	0	0	0	1
RightHandThumb3	0	0	0	0	0	0	1
RightHandThumb4	0	0	0	0	0	0	1
LeftUpLeg	0	0	0	0	0	0	1
LeftLeg	0	0	0	0	0	0	1
LeftFoot	0	0	0	0	0	0	1
LeftToeBase	0	0	0	0	0	0	1
RightUpLeg	0	0	0	0	0	0	1
RightLeg	0	0	0	0	0	0	1
RightFoot	0	0	0	0	0	0	1
RightToeBase	0	0	0	0	0	0	1
[Hips]
279	865.8603516	985.4953613	40.3980217	5.583142281	11.72917938	-0.5962882042	1.0
280	899.8856201	989.6774902	42.71694946	3.188874006	13.2039938	-3.149280548	1.0
281	937.9312744	995.5877075	49.80552673	3.282591581	13.9071846	-5.542813301	1.0
282	975.7184448	992.9066162	58.92190933	5.791090965	14.63676071	-6.449994564	1.0
[Spine]
279	0	101.8159943	1.315000057	7.056585789	-0.1276186109	0.2690761685	1.0
280	0	101.8159943	1.315000057	7.421813011	-0.772675693	2.868020535	1.0
281	0	101.8159943	1.315000057	5.812349796	-2.005158424	5.137851715	1.0
282	0	101.8159943	1.315000057	2.904363155	-3.289484739	6.58931303	1.0
[Spine1]
279	0	100.8349991	-10.00800037	3.162916899	0.02243514359	0.6775214076	1.0
280	0	100.8349991	-10.00800037	3.913520575	-0.1480453908	0.5287783742	1.0
281	0	100.8349991	-10.00800037	3.354514837	-0.4077741802	0.3911368847	1.0
282	0	100.8349991	-10.00800037	1.744408488	-0.6933709979	0.1167246997	1.0
[Spine2]
279	0	91	-13.73399925	3.145972013	0.07786823809	0.6786553264	1.0
280	0	91	-13.73399925	3.898463726	-0.1129799932	0.5291391611	1.0
281	0	91	-13.73399925	3.335554123	-0.3991326392	0.388828069	1.0
282	0	91	-13.73399925	1.71159935	-0.6937687397	0.1159898043	1.0
[Neck]
279	0	166.7169952	-25.16200066	-17.88772392	-10.18677616	1.27336061	1.0
280	0	166.7169952	-25.16200066	-17.09387016	-10.63006306	-0.1562975198	1.0
281	0	166.7169952	-25.16200066	-15.76378155	-10.6954689	-0.5481802225	1.0
282	0	166.7169952	-25.16200066	-14.15816689	-10.57774448	-1.224699736	1.0
[Head]
279	0	96.17900085	16.84999847	-19.77230644	-57.10084152	2.987900019	1.0
280	0	96.17900085	16.84999847	-16.94079971	-60.18328476	4.083369255	1.0
281	0	96.17900085	16.84999847	-11.25009155	-62.24881744	0.6661172509	1.0
282	0	96.17900085	16.84999847	-4.374037743	-63.87721634	-4.70537138	1.0
[LeftEye]
279	30.6760006	64.09500122	92.83599854	0	0	0	1.0
280	30.6760006	64.09500122	92.83599854	0	0	0	1.0
281	30.6760006	64.09500122	92.83599854	0	0	0	1.0
282	30.6760006	64.09500122	92.83599854	0	0	0	1.0
[RightEye]
279	-30.6760006	64.09500122	92.83499908	0	0	0	1.0
280	-30.6760006	64.09500122	92.83499908	0	0	0	1.0
281	-30.6760006	64.09500122	92.83499908	0	0	0	1.0
282	-30.6760006	64.09500122	92.83499908	0	0	0	1.0
[LeftShoulder]
279	45.70400238	109.4599991	-26.28000069	4.026623249	-18.17997169	-5.878559113	1.0
280	45.70400238	109.4599991	-26.28000069	3.859184027	-20.89701653	-4.704573631	1.0
281	45.70400238	109.4599991	-26.28000069	3.669603109	-20.53249359	-3.400693893	1.0
282	45.70400238	109.4599991	-26.28000069	3.718366385	-18.69661522	-3.676451683	1.0
[LeftArm]
279	105.923996	-5.24600029	-22.32099915	48.86077118	35.22127533	-37.08277893	1.0
280	105.923996	-5.24600029	-22.32099915	47.18784332	35.31095886	-40.93546677	1.0
281	105.923996	-5.24600029	-22.32099915	48.98720932	34.08947372	-42.85996628	1.0
282	105.923996	-5.24600029	-22.32099915	53.89168549	33.56455612	-40.69104004	1.0
[LeftForeArm]
279	278.414978	-0.0009999999311	0	0.000119741293	-96.7755661	-0.0003395229287	1.0
280	278.414978	-0.0009999999311	0	-2.994072202e-05	-92.54125977	-0.000209472928	1.0
281	278.414978	-0.0009999999311	0	-0.001126421266	-89.67503357	0.0007511834847	1.0
282	278.414978	-0.0009999999311	0	-0.0004286300682	-89.52197266	0.0001826753869	1.0
[LeftHand]
279	283.2879944	0	0	34.5933876	-31.19810295	-19.80621338	1.0
280	283.2879944	0	0	35.33822632	-36.60874557	-18.14441109	1.0
281	283.2879944	0	0	32.35028458	-39.48983002	-16.04277229	1.0
282	283.2879944	0	0	26.69290352	-39.71492004	-13.60562229	1.0
[LeftHandThumb1]
279	24.6609993	-15.75	26.8239994	-1.44146955	-8.31926918	8.653960228	1.0
280	24.6609993	-15.75	26.8239994	-1.441467762	-8.31926918	8.653958321	1.0
281	24.6609993	-15.75	26.8239994	-1.441459298	-8.319266319	8.653960228	1.0
282	24.6609993	-15.75	26.8239994	-1.441460133	-8.319262505	8.65396595	1.0
[LeftHandThumb2]
279	32.29800034	-18.64699936	18.64699936	-0.9986026883	48.03615189	-30.10181236	1.0
280	32.29800034	-18.64699936	18.64699936	-0.9986252785	48.03616333	-30.10183144	1.0
281	32.29800034	-18.64699936	18.64699936	-0.9986227751	48.0361557	-30.10184097	1.0
282	32.29800034	-18.64699936	18.64699936	-0.9986277223	48.03616333	-30.10184479	1.0
[LeftHandThumb3]
279	26.52600098	-15.31499958	15.31499958	7.522175312	50.02408981	24.38757706	1.0
280	26.52600098	-15.31499958	15.31499958	7.522177219	50.02408218	24.38756943	1.0
281	26.52600098	-15.31499958	15.31499958	7.522160053	50.02407455	24.38757706	1.0
282	26.52600098	-15.31499958	15.31499958	7.522167683	50.02407455	24.38755608	1.0
[LeftHandThumb4]
279	19.54599953	-11.28499985	11.28499985	0	0	0	1.0
280	19.54599953	-11.28499985	11.28499985	0	0	0	1.0
281	19.54599953	-11.28499985	11.28499985	0	0	0	1.0
282	19.54599953	-11.28499985	11.28499985	0	0	0	1.0
[LeftHandIndex1]
279	91.09299469	-5.170999527	22.60099792	-1.706932783	9.27218914	-79.12529755	1.0
280	91.09299469	-5.170999527	22.60099792	-1.706923604	9.272191048	-79.12528229	1.0
281	91.09299469	-5.170999527	22.60099792	-1.706925035	9.272173882	-79.12528229	1.0
282	91.09299469	-5.170999527	22.60099792	-1.70690763	9.272192001	-79.12528229	1.0
[LeftHandIndex2]
279	36.76399994	0	0	-5.084231377	5.778055191	-82.67963409	1.0
280	36.76399994	0	0	-5.0842309	5.778044224	-82.67964172	1.0
281	36.76399994	0	0	-5.084227085	5.77806282	-82.67963409	1.0
282	36.76399994	0	0	-5.084218025	5.778041363	-82.67964172	1.0
[LeftHandIndex3]
279	28.83100128	0	0	-6.449678421	5.791760921	-96.164505	1.0
280	28.83100128	0	0	-6.449667931	5.791767597	-96.16448975	1.0
281	28.83100128	0	0	-6.449680328	5.791755676	-96.16448975	1.0
282	28.83100128	0	0	-6.449671745	5.791761875	-96.16446686	1.0
[LeftHandIndex4]
279	23.92700005	0	0	0	0	0	1.0
280	23.92700005	0	0	0	0	0	1.0
281	23.92700005	0	0	0	0	0	1.0
282	23.92700005	0	0	0	0	0	1.0
[LeftHandMiddle1]
279	95.33399963	0	0	-6.494763374	5.273265362	-74.30394745	1.0
280	95.33399963	0	0	-6.494756222	5.273267269	-74.30393982	1.0
281	95.33399963	0	0	-6.494753361	5.273253918	-74.30393219	1.0
282	95.33399963	0	0	-6.494747639	5.273261547	-74.30393219	1.0
[LeftHandMiddle2]
279	36.98199844	0	0	-7.583490372	5.554389477	-107.5965881	1.0
280	36.98199844	0	0	-7.583504677	5.554385662	-107.5965958	1.0
281	36.98199844	0	0	-7.583497047	5.554376125	-107.5966034	1.0
282	36.98199844	0	0	-7.583478451	5.554386616	-107.5966034	1.0
[LeftHandMiddle3]
279	29.50900078	0	0	-4.044067383	5.547127724	-72.16721344	1.0
280	29.50900078	0	0	-4.04407692	5.547131062	-72.16720581	1.0
281	29.50900078	0	0	-4.044086933	5.547124386	-72.16721344	1.0
282	29.50900078	0	0	-4.04408884	5.547113895	-72.16722107	1.0
[LeftHandMiddle4]
279	28.3390007	0	0	0	0	0	1.0
280	28.3390007	0	0	0	0	0	1.0
281	28.3390007	0	0	0	0	0	1.0
282	28.3390007	0	0	0	0	0	1.0
[LeftHandRing1]
279	91.04499817	-0.4390000105	-18.65100098	-7.093598843	2.507951975	-79.76667786	1.0
280	91.04499817	-0.4390000105	-18.65100098	-7.093587875	2.507957935	-79.76669312	1.0
281	91.04499817	-0.4390000105	-18.65100098	-7.093589306	2.507955551	-79.76667786	1.0
282	91.04499817	-0.4390000105	-18.65100098	-7.093583107	2.507944345	-79.76667786	1.0
[LeftHandRing2]
279	31.54000092	0	0	-6.249154568	5.809820175	-94.18067169	1.0
280	31.54000092	0	0	-6.249144077	5.809821606	-94.18068695	1.0
281	31.54000092	0	0	-6.249140263	5.809799671	-94.18067932	1.0
282	31.54000092	0	0	-6.249153614	5.809815407	-94.18070221	1.0
[LeftHandRing3]
279	29.37700081	0	0	-2.898617268	5.038874626	-59.79808044	1.0
280	29.37700081	0	0	-2.898609638	5.038870335	-59.79806519	1.0
281	29.37700081	0	0	-2.898614883	5.03886652	-59.798069	1.0
282	29.37700081	0	0	-2.898603439	5.03887558	-59.79807281	1.0
[LeftHandRing4]
279	26.47500038	0	0	0	0	0	1.0
280	26.47500038	0	0	0	0	0	1.0
281	26.47500038	0	0	0	0	0	1.0
282	26.47500038	0	0	0	0	0	1.0
[LeftHandPinky1]
279	80.77799988	-4.887000084	-38.06099701	-15.74280453	5.236333847	-84.96307373	1.0
280	80.77799988	-4.887000084	-38.06099701	-15.7427969	5.236333847	-84.96305847	1.0
281	80.77799988	-4.887000084	-38.06099701	-15.7428112	5.23633194	-84.9630661	1.0
282	80.77799988	-4.887000084	-38.06099701	-15.74281406	5.236330032	-84.9630661	1.0
[LeftHandPinky2]
279	36	0	0	-2.465516806	4.761474133	-54.73121262	1.0
280	36	0	0	-2.465526819	4.761466026	-54.73119736	1.0
281	36	0	0	-2.465515137	4.761464119	-54.73118591	1.0
282	36	0	0	-2.46551609	4.761476517	-54.73121262	1.0
[LeftHandPinky3]
279	21.14200211	0	0	-4.929654121	5.756192684	-81.14131927	1.0
280	21.14200211	0	0	-4.929644108	5.756198406	-81.14134216	1.0
281	21.14200211	0	0	-4.929645061	5.756196499	-81.14135742	1.0
282	21.14200211	0	0	-4.929638863	5.756189346	-81.14134216	1.0
[LeftHandPinky4]
279	19.75699997	0	0	0	0	0	1.0
280	19.75699997	0	0	0	0	0	1.0
281	19.75699997	0	0	0	0	0	1.0
282	19.75699997	0	0	0	0	0	1.0
[RightShoulder]
279	-45.70000076	109.4620056	-26.28000069	2.340344191	2.922058344	-4.110697269	1.0
280	-45.70000076	109.4620056	-26.28000069	2.295591593	2.897543669	-4.56535244	1.0
281	-45.70000076	109.4620056	-26.28000069	2.700380564	2.197035074	1.638428807	1.0
282	-45.70000076	109.4620056	-26.28000069	3.059478998	-0.3493276834	9.59114933	1.0
[RightArm]
279	-105.9280014	-5.248000145	-22.32099915	41.78700638	-25.03637123	56.70870972	1.0
280	-105.9280014	-5.248000145	-22.32099915	41.40208435	-25.11529922	56.15539551	1.0
281	-105.9280014	-5.248000145	-22.32099915	43.13599014	-26.30791473	46.04854965	1.0
282	-105.9280014	-5.248000145	-22.32099915	46.80183029	-25.46546745	32.71157074	1.0
[RightForeArm]
279	-278.414978	0	0	-0.0002469673636	80.20171356	-0.0005456650979	1.0
280	-278.414978	0	0	0.0008600968285	83.03591919	0.001970027806	1.0
281	-278.414978	0	0	0.005197665188	89.98271942	0.01180449035	1.0
282	-278.414978	0	0	0.0008346199174	96.52335358	0.001945501659	1.0
[RightHand]
279	-283.2879944	0	0.0009999999311	45.8577652	34.28683472	43.06543732	1.0
280	-283.2879944	0	0.0009999999311	45.51901245	31.26156235	41.5652504	1.0
281	-283.2879944	0	0.0009999999311	40.60683823	26.46705055	40.99571609	1.0
282	-283.2879944	0	0.0009999999311	33.1869545	22.57806969	41.87900162	1.0
[RightHandPinky1]
279	-80.76699829	-4.885000229	-38.06000137	-14.51679325	-4.048315048	84.2134552	1.0
280	-80.76699829	-4.885000229	-38.06000137	-14.51745415	-4.048334122	84.21504974	1.0
281	-80.76699829	-4.885000229	-38.06000137	-14.51732349	-4.048324585	84.21473694	1.0
282	-80.76699829	-4.885000229	-38.06000137	-14.51712608	-4.04831934	84.21425629	1.0
[RightHandPinky2]
279	-36	0	0.0009999999311	-1.960841537	-3.784830332	54.78261948	1.0
280	-36	0	0.0009999999311	-1.960833311	-3.78482151	54.78263474	1.0
281	-36	0	0.0009999999311	-1.960823298	-3.784831524	54.78263474	1.0
282	-36	0	0.0009999999311	-1.960844517	-3.784824133	54.78262329	1.0
[RightHandPinky3]
279	-21.14200211	0	0	-3.919524908	-4.575727463	81.15795135	1.0
280	-21.14200211	0	0	-3.9195292	-4.575724125	81.15794373	1.0
281	-21.14200211	0	0	-3.919516087	-4.575715542	81.15795898	1.0
282	-21.14200211	0	0	-3.919512272	-4.575719833	81.15795898	1.0
[RightHandPinky4]
279	-19.75699997	0	0	0	0	0	1.0
280	-19.75699997	0	0	0	0	0	1.0
281	-19.75699997	0	0	0	0	0	1.0
282	-19.75699997	0	0	0	0	0	1.0
[RightHandRing1]
279	-91.03599548	-0.4390000105	-18.65100098	-5.975787163	-1.32044971	79.02177429	1.0
280	-91.03599548	-0.4390000105	-18.65100098	-5.975928307	-1.320528865	79.02334595	1.0
281	-91.03599548	-0.4390000105	-18.65100098	-5.975897789	-1.320520163	79.02303314	1.0
282	-91.03599548	-0.4390000105	-18.65100098	-5.975852489	-1.320491552	79.02256775	1.0
[RightHandRing2]
279	-31.54000092	0	0	-4.967084885	-4.618299007	94.17275238	1.0
280	-31.54000092	0	0	-4.967076778	-4.618292809	94.17275238	1.0
281	-31.54000092	0	0	-4.967068672	-4.618288517	94.17274475	1.0
282	-31.54000092	0	0	-4.967088699	-4.618286133	94.17276001	1.0
[RightHandRing3]
279	-29.37700081	0	0	-2.306356907	-4.006089211	59.84557343	1.0
280	-29.37700081	0	0	-2.306356192	-4.006102085	59.84557343	1.0
281	-29.37700081	0	0	-2.306354046	-4.00609827	59.84558487	1.0
282	-29.37700081	0	0	-2.306351423	-4.006092548	59.84556961	1.0
[RightHandRing4]
279	-26.47500038	0	0	0	0	0	1.0
280	-26.47500038	0	0	0	0	0	1.0
281	-26.47500038	0	0	0	0	0	1.0
282	-26.47500038	0	0	0	0	0	1.0
[RightHandMiddle1]
279	-95.32500458	0	0	-5.490108013	-4.098416328	73.57198334	1.0
280	-95.32500458	0	0	-5.490242004	-4.098570347	73.57360077	1.0
281	-95.32500458	0	0	-5.490226269	-4.098527908	73.57327271	1.0
282	-95.32500458	0	0	-5.490188599	-4.098489285	73.57279205	1.0
[RightHandMiddle2]
279	-36.98199844	0	0	-6.026580334	-4.415503502	107.5651169	1.0
280	-36.98199844	0	0	-6.026574612	-4.415495872	107.5651169	1.0
281	-36.98199844	0	0	-6.026578426	-4.415482998	107.5651321	1.0
282	-36.98199844	0	0	-6.026575565	-4.415509224	107.5651093	1.0
[RightHandMiddle3]
279	-29.50900078	0	0	-3.216325283	-4.411739826	72.19916534	1.0
280	-29.50900078	0	0	-3.216336012	-4.411736488	72.1991806	1.0
281	-29.50900078	0	0	-3.216320753	-4.411750793	72.19916534	1.0
282	-29.50900078	0	0	-3.216314316	-4.411755562	72.19915771	1.0
[RightHandMiddle4]
279	-28.3390007	0	0.0009999999311	0	0	0	1.0
280	-28.3390007	0	0.0009999999311	0	0	0	1.0
281	-28.3390007	0	0.0009999999311	0	0	0	1.0
282	-28.3390007	0	0.0009999999311	0	0	0	1.0
[RightHandIndex1]
279	-91.08300018	-5.167999744	22.60099792	-0.6029978395	-8.085605621	78.39151764	1.0
280	-91.08300018	-5.167999744	22.60099792	-0.6036584973	-8.085697174	78.39316559	1.0
281	-91.08300018	-5.167999744	22.60099792	-0.6035280824	-8.085672379	78.39283752	1.0
282	-91.08300018	-5.167999744	22.60099792	-0.6033343077	-8.085638046	78.39234161	1.0
[RightHandIndex2]
279	-36.76399994	0	0	-4.042236328	-4.593071938	82.69343567	1.0
280	-36.76399994	0	0	-4.042229176	-4.593076706	82.69343567	1.0
281	-36.76399994	0	0	-4.042232037	-4.593085766	82.69343567	1.0
282	-36.76399994	0	0	-4.042233467	-4.593080521	82.69345093	1.0
[RightHandIndex3]
279	-28.83100128	0	0	-5.126297951	-4.603946209	96.1528244	1.0
280	-28.83100128	0	0	-5.126300812	-4.603941917	96.1528244	1.0
281	-28.83100128	0	0	-5.12628603	-4.60395813	96.15283966	1.0
282	-28.83100128	0	0	-5.126280308	-4.603961468	96.15281677	1.0
[RightHandIndex4]
279	-23.92700005	0	0	0	0	0	1.0
280	-23.92700005	0	0	0	0	0	1.0
281	-23.92700005	0	0	0	0	0	1.0
282	-23.92700005	0	0	0	0	0	1.0
[RightHandThumb1]
279	-24.64799881	-15.72700024	26.82600021	-2.388265133	10.16896057	-8.28792572	1.0
280	-24.64799881	-15.72700024	26.82600021	-2.388208628	10.16829967	-8.286351204	1.0
281	-24.64799881	-15.72700024	26.82600021	-2.388225555	10.1684351	-8.286667824	1.0
282	-24.64799881	-15.72700024	26.82600021	-2.388257027	10.16863155	-8.2871418	1.0
[RightHandThumb2]
279	-32.29800034	-18.64699936	18.64699936	-2.059288025	-49.39985657	30.22303391	1.0
280	-32.29800034	-18.64699936	18.64699936	-2.059276819	-49.3998642	30.22304535	1.0
281	-32.29800034	-18.64699936	18.64699936	-2.059267282	-49.39986038	30.22301292	1.0
282	-32.29800034	-18.64699936	18.64699936	-2.059280872	-49.39985657	30.22304153	1.0
[RightHandThumb3]
279	-26.52600098	-15.31399918	15.31399918	13.49723721	-55.14929962	-27.72499084	1.0
280	-26.52600098	-15.31399918	15.31399918	13.49723721	-55.14929581	-27.72499466	1.0
281	-26.52600098	-15.31399918	15.31399918	13.49725151	-55.14930344	-27.72500229	1.0
282	-26.52600098	-15.31399918	15.31399918	13.49727249	-55.14929199	-27.72500992	1.0
[RightHandThumb4]
279	-19.54599953	-11.28499985	11.28499985	0	0	0	1.0
280	-19.54599953	-11.28499985	11.28499985	0	0	0	1.0
281	-19.54599953	-11.28499985	11.28499985	0	0	0	1.0
282	-19.54599953	-11.28499985	11.28499985	0	0	0	1.0
[LeftUpLeg]
279	82.07800293	-67.51699829	-15.99599934	-34.71469116	14.45094967	16.619524	1.0
280	82.07800293	-67.51699829	-15.99599934	-28.67630386	14.84148693	20.92204285	1.0
281	82.07800293	-67.51699829	-15.99599934	-23.63195992	17.67799759	22.60713196	1.0
282	82.07800293	-67.51699829	-15.99599934	-22.7210331	19.77049446	21.731884	1.0
[LeftLeg]
279	0	-443.7049866	2.845999956	41.05181885	2.175673008	3.512197495	1.0
280	0	-443.7049866	2.845999956	28.40228844	0.02437422238	1.064172268	1.0
281	0	-443.7049866	2.845999956	16.12909126	-2.148714304	0.1706176996	1.0
282	0	-443.7049866	2.845999956	11.18239307	-1.166316867	0.5133501291	1.0
[LeftFoot]
279	0	-444.2789917	-29.8219986	6.186161518	-0.8251157999	-8.657992363	1.0
280	0	-444.2789917	-29.8219986	10.66303444	-0.4341735244	-9.506138802	1.0
281	0	-444.2789917	-29.8219986	16.43523026	0.6753975749	-12.98251057	1.0
282	0	-444.2789917	-29.8219986	14.9233036	0.8873147964	-15.15534592	1.0
[LeftToeBase]
279	0	-87.28699493	107.1060028	-1.744435668	-6.720707461e-06	3.962193205e-06	1.0
280	0	-87.28699493	107.1060028	-3.983510494	-2.221725026e-06	4.894643553e-06	1.0
281	0	-87.28699493	107.1060028	-6.310388565	-3.29806403e-06	-1.460242629e-06	1.0
282	0	-87.28699493	107.1060028	-6.215768337	-3.96845877e-07	6.792775366e-06	1.0
[RightUpLeg]
279	-82.07800293	-67.51699829	-15.99599934	-17.56943512	-8.788518906	1.200916171	1.0
280	-82.07800293	-67.51699829	-15.99599934	-16.18576622	-17.03626251	-1.693958282	1.0
281	-82.07800293	-67.51699829	-15.99599934	-15.07344437	-21.99323845	-9.500437737	1.0
282	-82.07800293	-67.51699829	-15.99599934	-14.20915699	-21.00896454	-18.46078873	1.0
[RightLeg]
279	0	-443.7049866	2.861999989	36.21904373	-6.627574921	-3.296170235	1.0
280	0	-443.7049866	2.861999989	38.77760315	-4.16601038	-0.7981933951	1.0
281	0	-443.7049866	2.861999989	37.56040573	0.3088653088	3.975142956	1.0
282	0	-443.7049866	2.861999989	31.84513855	2.708683014	5.296875954	1.0
[RightFoot]
279	0	-444.2770081	-29.83799934	-21.28935242	-7.862934113	4.879208088	1.0
280	0	-444.2770081	-29.83799934	-10.64566517	5.108927727	6.840913296	1.0
281	0	-444.2770081	-29.83799934	7.56546402	16.2487793	20.81807137	1.0
282	0	-444.2770081	-29.83799934	20.09512329	13.81864643	31.32126427	1.0
[RightToeBase]
279	0	-87.28699493	107.1060028	-6.273827076	0.03688137978	0.0839921087	1.0
280	0	-87.28699493	107.1060028	-16.99088097	-0.1290959418	-0.2939693034	1.0
281	0	-87.28699493	107.1060028	-24.8728447	-0.7684471607	-1.749823093	1.0
282	0	-87.28699493	107.1060028	-15.79674721	-0.12909697	-0.2939731181	1.0
[EndOfFile]
